<svg width="92" height="31" viewBox="0 0 92 31" fill="none" xmlns="http://www.w3.org/2000/svg">
<path d="M25.0798 7.19487L20.9337 19.8111L16.864 7.19487H13.0486L8.85169 19.7093L4.83282 7.19487H0.55959L6.40985 25H10.8103L14.8546 12.9434L18.7717 25H23.1975L29.0224 7.19487H25.0798ZM43.9379 18.2086C43.9379 13.8082 40.8347 11.112 36.8159 11.112C32.6444 11.112 29.5158 14.0626 29.5158 18.1577C29.5158 22.2275 32.5935 25.2035 37.3246 25.2035C39.7919 25.2035 41.6996 24.4404 42.9714 22.9906L40.8602 20.7013C39.9191 21.5916 38.8762 22.024 37.4263 22.024C35.3406 22.024 33.8907 20.9811 33.5092 19.2769H43.8616C43.8871 18.9463 43.9379 18.5138 43.9379 18.2086ZM36.8413 14.1134C38.6218 14.1134 39.9191 15.2326 40.1989 16.9623H33.4583C33.7381 15.2072 35.0354 14.1134 36.8413 14.1134ZM51.4379 11.0357C51.4379 9.68759 52.0738 9.05169 53.2439 9.05169C53.8543 9.05169 54.4139 9.22974 54.8463 9.53497L55.8892 6.66072C55.1516 6.152 53.9815 5.92308 52.8623 5.92308C49.4539 5.92308 47.5717 7.93251 47.5717 11.0103V11.6207H45.4605V14.673H47.5717V25H51.5397V14.673H54.9481V11.6207H51.4379V11.0357Z" fill="#141414"/>
<path d="M82.8638 11.112C80.6763 11.112 78.4634 11.697 76.9627 12.7653L78.3871 15.5378C79.3791 14.7493 80.8798 14.2661 82.3296 14.2661C84.4663 14.2661 85.4837 15.2581 85.4837 16.9623H82.3296C78.1582 16.9623 76.4539 18.641 76.4539 21.0574C76.4539 23.423 78.3616 25.2035 81.5666 25.2035C83.576 25.2035 85.0004 24.5422 85.738 23.2958V25H89.4517V17.1912C89.4517 13.0451 87.0353 11.112 82.8638 11.112ZM82.5586 22.5327C81.1596 22.5327 80.3202 21.8714 80.3202 20.8794C80.3202 19.9637 80.9052 19.2769 82.762 19.2769H85.4837V20.6759C85.0258 21.9223 83.8812 22.5327 82.5586 22.5327Z" fill="#141414"/>
<path d="M60.8519 18.3565C63.8245 20.9406 68.329 20.6256 70.913 17.653C73.497 14.6804 73.1821 10.1759 70.2095 7.59187C67.2369 5.00785 62.7324 5.32284 60.1484 8.29541C57.5643 11.268 57.8793 15.7725 60.8519 18.3565Z" stroke="#FF5E41" stroke-width="1.12605" stroke-linecap="round" stroke-linejoin="round"/>
<path d="M66.3083 24.0942L66.1602 21.9761" stroke="#FF5E41" stroke-width="1.12605" stroke-linecap="round" stroke-linejoin="round"/>
<ellipse cx="67.9614" cy="13.5128" rx="1.58974" ry="1.98718" fill="#FF5E41" fill-opacity="0.45"/>
</svg>
