<svg width="14" height="14" viewBox="0 0 14 14" fill="none" xmlns="http://www.w3.org/2000/svg">
<path d="M8.35317 1.77594L9.30651 3.6826C9.43651 3.94802 9.78317 4.2026 10.0757 4.25135L11.8036 4.53844C12.9086 4.7226 13.1686 5.52427 12.3723 6.3151L11.029 7.65844C10.8015 7.88594 10.6769 8.32469 10.7473 8.63885L11.1319 10.3018C11.4353 11.618 10.7365 12.1272 9.57192 11.4393L7.95234 10.4805C7.65984 10.3072 7.17776 10.3072 6.87984 10.4805L5.26026 11.4393C4.10109 12.1272 3.39692 11.6126 3.70026 10.3018L4.08484 8.63885C4.15526 8.32469 4.03067 7.88594 3.80317 7.65844L2.45984 6.3151C1.66901 5.52427 1.92359 4.7226 3.02859 4.53844L4.75651 4.25135C5.04359 4.2026 5.39026 3.94802 5.52026 3.6826L6.47359 1.77594C6.99359 0.741354 7.83859 0.741354 8.35317 1.77594Z" fill="black" stroke="black" stroke-width="1.5" stroke-linecap="round" stroke-linejoin="round"/>
</svg>
